# xmcd CD database file
#
# Track frame offsets:
#	150
#	14777
#	28750
#	43894
#	58322
#	71817
#	84735
#	97791
#	111192
#	123736
#	136078
#	148989
#	161709
#	174179
#	185987
#	198885
#	211259
#	224131
#	235048
#	246699
#	258861
#	270618
#	282323
#	294628
#	307148
#
# Disc length: 4259 seconds
#
# Revision: 0
# Processed by: cddbd v1.5.1PL0 Copyright (c) Steve Scherf et al.
# Submitted via: CDex 1.51
#
DISCID=9c10a119
DTITLE=Blind Boy Fuller - Remastered 1935-1938 #C
DYEAR=2004
DGENRE=Blues
TTITLE0=Bulldog Blues 
TTITLE1=Where My Woman USTA Lay 
TTITLE2=Working Man Blues 
TTITLE3=Weeping Willow 
TTITLE4=Corrine What Makes You Treat Me So? 
TTITLE5=Stealing Bo-Hog 
TTITLE6=Worried and Evil Man Blues 
TTITLE7=Bulldog Blues 
TTITLE8=Break of Day Blues 
TTITLE9=Oh Zee Zas Rag 
TTITLE10=Throw Your Yas Yas Back in Jail 
TTITLE11=Snake Woman Blues 
TTITLE12=Mojo Hidin' Woman 
TTITLE13=Steel Hearted Woman 
TTITLE14=Ain't No Gettin' Along 
TTITLE15=Careless Love
TTITLE16=New Louise Louise Blues 
TTITLE17=Mistreater, You're Going to Be Sorry 
TTITLE18=Bye Bye Baby Blues, 
TTITLE19=Looking for My Woman No. 2
TTITLE20=Shaggy Like a Bear    
TTITLE21=Ten O'Clock Peeper    
TTITLE22=Hungry Calf Blues    
TTITLE23=Too Many Women Blues    
TTITLE24=Oozin' You off My Mind    
EXTD=YEAR: 2004
EXTT0=
EXTT1=
EXTT2=
EXTT3=
EXTT4=
EXTT5=
EXTT6=
EXTT7=
EXTT8=
EXTT9=
EXTT10=
EXTT11=
EXTT12=
EXTT13=
EXTT14=
EXTT15=
EXTT16=
EXTT17=
EXTT18=
EXTT19=
EXTT20=
EXTT21=
EXTT22=
EXTT23=
EXTT24=
PLAYORDER=
